<?xml version="1.0" encoding="UTF-8"?>
<svg xmlns="http://www.w3.org/2000/svg" xmlns:xlink="http://www.w3.org/1999/xlink" width="3000" height="3000" viewBox="0 0 3000 3000">
<defs>
<clipPath id="clip-0">
<path clip-rule="nonzero" d="M 1172 1274 L 1596 1274 L 1596 1756 L 1172 1756 Z M 1172 1274 "/>
</clipPath>
<clipPath id="clip-1">
<path clip-rule="evenodd" d="M 1481.988281 1238.210938 L 1251.589844 1435.03125 L 855.914062 1559.269531 C 855.914062 1559.269531 890.390625 1786.261719 1029.371094 1811.808594 C 1126.160156 1829.609375 1405.699219 1713.53125 1441.398438 1611.589844 C 1514.910156 1401.671875 1629.539062 1262.21875 1585.621094 1208.5 C 1585.621094 1208.5 1567.171875 1171.699219 1560.171875 1160.921875 C 1501.261719 1070.199219 1474.628906 1099.058594 1474.628906 1099.058594 C 1474.628906 1099.058594 1524.511719 1199.558594 1480.949219 1159.671875 C 1474.019531 1153.320312 1465.511719 1170.011719 1469.460938 1187.328125 C 1474.460938 1209.289062 1481.988281 1238.210938 1481.988281 1238.210938 Z M 1481.988281 1238.210938 "/>
</clipPath>
<clipPath id="clip-2">
<path clip-rule="nonzero" d="M 855 1423 L 1455 1423 L 1455 1814 L 855 1814 Z M 855 1423 "/>
</clipPath>
<clipPath id="clip-3">
<path clip-rule="evenodd" d="M 1481.988281 1238.210938 L 1251.589844 1435.03125 L 855.914062 1559.269531 C 855.914062 1559.269531 890.390625 1786.261719 1029.371094 1811.808594 C 1126.160156 1829.609375 1405.699219 1713.53125 1441.398438 1611.589844 C 1514.910156 1401.671875 1629.539062 1262.21875 1585.621094 1208.5 C 1585.621094 1208.5 1567.171875 1171.699219 1560.171875 1160.921875 C 1501.261719 1070.199219 1474.628906 1099.058594 1474.628906 1099.058594 C 1474.628906 1099.058594 1524.511719 1199.558594 1480.949219 1159.671875 C 1474.019531 1153.320312 1465.511719 1170.011719 1469.460938 1187.328125 C 1474.460938 1209.289062 1481.988281 1238.210938 1481.988281 1238.210938 Z M 1481.988281 1238.210938 "/>
</clipPath>
<clipPath id="clip-4">
<path clip-rule="nonzero" d="M 1310 796 L 1841 796 L 1841 1704 L 1310 1704 Z M 1310 796 "/>
</clipPath>
<clipPath id="clip-5">
<path clip-rule="evenodd" d="M 1418.199219 821.898438 C 1412.011719 810.601562 1401.570312 802.21875 1389.191406 798.609375 C 1376.820312 795 1363.519531 796.460938 1352.210938 802.660156 C 1346.710938 805.671875 1341.070312 808.769531 1335.558594 811.789062 C 1324.261719 817.988281 1315.878906 828.421875 1312.269531 840.800781 C 1308.660156 853.171875 1310.121094 866.480469 1316.308594 877.78125 C 1397.230469 1025.320312 1662.769531 1509.511719 1705.148438 1586.78125 C 1708.941406 1593.691406 1713.820312 1599.949219 1719.589844 1605.320312 C 1740.058594 1624.359375 1791.761719 1672.429688 1822.359375 1700.878906 C 1825.75 1704.03125 1830.78125 1704.660156 1834.839844 1702.429688 C 1838.898438 1700.199219 1841.078125 1695.628906 1840.238281 1691.070312 C 1832.699219 1649.980469 1819.960938 1580.539062 1814.910156 1553.050781 C 1813.488281 1545.289062 1810.828125 1537.808594 1807.039062 1530.898438 C 1764.660156 1453.628906 1499.121094 969.441406 1418.199219 821.898438 Z M 1418.199219 821.898438 "/>
</clipPath>
<clipPath id="clip-6">
<path clip-rule="nonzero" d="M 1135 1737 L 1334 1737 L 1334 2197 L 1135 2197 Z M 1135 1737 "/>
</clipPath>
<clipPath id="clip-7">
<path clip-rule="evenodd" d="M 1200.96875 1570.378906 C 1146.898438 1508.511719 843.425781 1516.589844 793.648438 1579.148438 C 648.625 1761.429688 712.121094 2191.378906 712.121094 2191.378906 L 1333.050781 2196.417969 C 1251.710938 2094.015625 1290.871094 1673.261719 1200.96875 1570.378906 Z M 1200.96875 1570.378906 "/>
</clipPath>
<clipPath id="clip-8">
<path clip-rule="nonzero" d="M 1478 1340 L 1706 1340 L 1706 1856 L 1478 1856 Z M 1478 1340 "/>
</clipPath>
<clipPath id="clip-9">
<path clip-rule="evenodd" d="M 1578.851562 1340.019531 L 1500.460938 1593.640625 L 1090.351562 1531.941406 C 1090.351562 1531.941406 1021.878906 1751.078125 1135.609375 1834.949219 C 1214.808594 1893.359375 1516.960938 1911.511719 1593.710938 1835.519531 C 1751.769531 1679.03125 1700.96875 1426.261719 1685.019531 1358.71875 C 1685.019531 1358.71875 1684.558594 1317.558594 1682.988281 1304.800781 C 1669.789062 1197.449219 1633.210938 1211.71875 1633.210938 1211.71875 C 1633.210938 1211.71875 1622.980469 1322.148438 1601.300781 1267.210938 C 1597.859375 1258.46875 1583.820312 1258.339844 1579.78125 1275.640625 C 1574.648438 1297.578125 1578.851562 1340.019531 1578.851562 1340.019531 Z M 1578.851562 1340.019531 "/>
</clipPath>
<clipPath id="clip-10">
<path clip-rule="nonzero" d="M 1069 1397 L 1592 1397 L 1592 1886 L 1069 1886 Z M 1069 1397 "/>
</clipPath>
<clipPath id="clip-11">
<path clip-rule="evenodd" d="M 1578.851562 1340.019531 L 1500.460938 1593.640625 L 1090.351562 1531.941406 C 1090.351562 1531.941406 1021.878906 1751.078125 1135.609375 1834.949219 C 1214.808594 1893.359375 1516.960938 1911.511719 1593.710938 1835.519531 C 1751.769531 1679.03125 1700.96875 1426.261719 1685.019531 1358.71875 C 1685.019531 1358.71875 1684.558594 1317.558594 1682.988281 1304.800781 C 1669.789062 1197.449219 1633.210938 1211.71875 1633.210938 1211.71875 C 1633.210938 1211.71875 1622.980469 1322.148438 1601.300781 1267.210938 C 1597.859375 1258.46875 1583.820312 1258.339844 1579.78125 1275.640625 C 1574.648438 1297.578125 1578.851562 1340.019531 1578.851562 1340.019531 Z M 1578.851562 1340.019531 "/>
</clipPath>
<clipPath id="clip-12">
<path clip-rule="nonzero" d="M 973 1443 L 1049 1443 L 1049 1527 L 973 1527 Z M 973 1443 "/>
</clipPath>
<clipPath id="clip-13">
<path clip-rule="evenodd" d="M 1048.410156 1443.851562 L 960.183594 1443.851562 C 969.617188 1479.949219 948.894531 1509.21875 936.929688 1533.339844 C 961.863281 1581.75 1029.699219 1561.488281 1047.730469 1527.800781 C 1030.660156 1493.191406 1032.878906 1471.21875 1048.410156 1443.851562 Z M 1048.410156 1443.851562 "/>
</clipPath>
<clipPath id="clip-14">
<path clip-rule="nonzero" d="M 2309 1961 L 2533 1961 L 2533 2178 L 2309 2178 Z M 2309 1961 "/>
</clipPath>
<clipPath id="clip-15">
<path clip-rule="evenodd" d="M 2309.019531 2198.21875 C 2310.730469 2176.113281 2318.109375 2154.089844 2325.109375 2133.222656 C 2343.75 2077.621094 2370.648438 2027.707031 2418.269531 1991.851562 C 2441.390625 1974.441406 2472.789062 1958.140625 2502.808594 1962.25 C 2517 1964.191406 2532.859375 1972.398438 2532.179688 1988.820312 C 2530.949219 2018.203125 2495.710938 2041.144531 2474.199219 2055.414062 C 2421.601562 2090.324219 2323.929688 2128.101562 2309.019531 2198.21875 Z M 2309.019531 2198.21875 "/>
</clipPath>
<clipPath id="clip-16">
<path clip-rule="nonzero" d="M 2069 1961 L 2293 1961 L 2293 2178 L 2069 2178 Z M 2069 1961 "/>
</clipPath>
<clipPath id="clip-17">
<path clip-rule="evenodd" d="M 2292.839844 2198.21875 C 2291.128906 2176.113281 2283.75 2154.089844 2276.761719 2133.222656 C 2258.109375 2077.621094 2231.210938 2027.707031 2183.589844 1991.851562 C 2160.46875 1974.441406 2129.070312 1958.140625 2099.058594 1962.25 C 2084.859375 1964.191406 2069 1972.398438 2069.691406 1988.820312 C 2070.921875 2018.203125 2106.160156 2041.144531 2127.660156 2055.414062 C 2180.261719 2090.324219 2277.929688 2128.101562 2292.839844 2198.21875 Z M 2292.839844 2198.21875 "/>
</clipPath>
<clipPath id="clip-18">
<path clip-rule="nonzero" d="M 2478 1637 L 2564 1637 L 2564 1813 L 2478 1813 Z M 2478 1637 "/>
</clipPath>
<clipPath id="clip-19">
<path clip-rule="evenodd" d="M 2316.019531 2187.277344 C 2314.910156 2145.632812 2312.300781 2100.824219 2317.109375 2057.851562 C 2321.660156 2017.183594 2332.878906 1978.148438 2359.660156 1945.691406 C 2388.699219 1910.511719 2430.101562 1888.441406 2467.148438 1862.769531 C 2508.421875 1834.191406 2544.519531 1801.460938 2558.441406 1747.511719 C 2562.640625 1731.25 2564.261719 1714.339844 2562.609375 1697.621094 C 2560.851562 1679.789062 2554.980469 1662.601562 2547.050781 1646.53125 C 2543.238281 1638.789062 2533.851562 1635.601562 2526.109375 1639.421875 C 2518.371094 1643.238281 2515.179688 1652.628906 2519 1660.371094 C 2525.269531 1673.070312 2530.089844 1686.609375 2531.480469 1700.699219 C 2532.769531 1713.769531 2531.429688 1726.980469 2528.148438 1739.691406 C 2516.289062 1785.660156 2484.5 1812.699219 2449.339844 1837.058594 C 2409.960938 1864.339844 2366.398438 1888.378906 2335.53125 1925.78125 C 2275.550781 1998.460938 2282.398438 2099.847656 2284.75 2188.109375 C 2284.980469 2196.738281 2292.171875 2203.558594 2300.800781 2203.328125 C 2309.429688 2203.097656 2316.25 2195.90625 2316.019531 2187.277344 Z M 2316.019531 2187.277344 "/>
</clipPath>
<clipPath id="clip-20">
<path clip-rule="nonzero" d="M 2357 1475 L 2650 1475 L 2650 1738 L 2357 1738 Z M 2357 1475 "/>
</clipPath>
<clipPath id="clip-21">
<path clip-rule="evenodd" d="M 2502.871094 1443.449219 C 2583.898438 1443.449219 2649.691406 1509.238281 2649.691406 1590.269531 C 2649.691406 1671.289062 2583.898438 1737.078125 2502.871094 1737.078125 C 2421.839844 1737.078125 2356.058594 1671.289062 2356.058594 1590.269531 C 2356.058594 1509.238281 2421.839844 1443.449219 2502.871094 1443.449219 Z M 2502.871094 1443.449219 "/>
</clipPath>
</defs>
<path fill-rule="evenodd" fill="rgb(93.359375%, 93.359375%, 93.359375%)" fill-opacity="1" d="M 1009.101562 1050.050781 C 1159.851562 1212.980469 1149.980469 1467.269531 987.046875 1618.019531 C 917.183594 1682.660156 826.644531 1720.410156 731.550781 1724.550781 L 718.453125 1423.390625 C 742.226562 1422.359375 764.863281 1412.921875 782.328125 1396.761719 C 823.0625 1359.070312 825.53125 1295.5 787.84375 1254.769531 L 1009.101562 1050.050781 "/>
<path fill-rule="evenodd" fill="rgb(93.359375%, 93.359375%, 93.359375%)" fill-opacity="1" d="M 656.121094 1720.71875 C 565.167969 1707.46875 481.503906 1663.441406 419.078125 1595.96875 C 273.058594 1438.148438 277.101562 1193.359375 428.253906 1040.460938 L 571.171875 1181.730469 C 495.597656 1258.191406 493.574219 1380.578125 566.585938 1459.488281 C 597.796875 1493.21875 639.628906 1515.238281 685.105469 1521.871094 L 656.121094 1720.71875 "/>
<path fill-rule="evenodd" fill="rgb(93.359375%, 93.359375%, 93.359375%)" fill-opacity="1" d="M 498.292969 983.941406 C 639.527344 894.050781 821.6875 901.121094 955.527344 1001.691406 L 869.761719 1115.828125 C 783.464844 1050.988281 666.015625 1046.429688 574.949219 1104.390625 L 498.292969 983.941406 "/>
<path fill-rule="evenodd" fill="rgb(93.359375%, 93.359375%, 93.359375%)" fill-opacity="1" d="M 602.675781 2199.007812 C 499.222656 2151.269531 362.863281 1917.898438 485.261719 1833.910156 C 557.265625 1784.5 660.925781 1799.339844 743.324219 1791.769531 C 884.574219 1778.78125 1021.78125 1725.03125 1110.671875 1610.101562 C 1300.601562 1364.53125 1210.199219 781.558594 1659.769531 804.308594 C 1851.21875 813.988281 2003.648438 944.398438 2079.148438 1113.949219 C 2119.078125 1203.628906 2141.421875 1325.308594 2211.878906 1397.558594 C 2289.421875 1477.078125 2420.691406 1419.238281 2515.359375 1415.570312 C 2588.609375 1412.738281 2631.121094 1460.128906 2625.191406 1532.75 C 2604.441406 1787.191406 2252.539062 1950.128906 2281.308594 2203.335938 L 602.675781 2199.007812 "/>
<path fill-rule="evenodd" fill="rgb(41.209412%, 57.617188%, 64.256287%)" fill-opacity="1" d="M 2328.011719 1093.589844 C 2330.589844 1081.648438 2328.328125 1070.199219 2321.710938 1061.75 C 2315.101562 1053.308594 2304.671875 1048.570312 2292.730469 1048.570312 C 2132.761719 1048.570312 1592.789062 1048.570312 1432.820312 1048.570312 C 1420.878906 1048.570312 1408.410156 1053.308594 1398.140625 1061.75 C 1387.871094 1070.199219 1380.648438 1081.648438 1378.070312 1093.589844 C 1338.539062 1276.339844 1190.308594 1961.730469 1150.78125 2144.484375 C 1148.199219 2156.421875 1150.460938 2167.871094 1157.078125 2176.316406 C 1163.699219 2184.757812 1174.121094 2189.503906 1186.058594 2189.503906 C 1346.03125 2189.503906 1886 2189.503906 2045.96875 2189.503906 C 2057.910156 2189.503906 2070.390625 2184.757812 2080.660156 2176.316406 C 2090.929688 2167.871094 2098.140625 2156.421875 2100.730469 2144.484375 C 2140.25 1961.730469 2288.488281 1276.339844 2328.011719 1093.589844 "/>
<path fill-rule="evenodd" fill="rgb(100%, 100%, 100%)" fill-opacity="1" d="M 1609.269531 1387.128906 C 1612.558594 1371.910156 1602.890625 1359.570312 1587.671875 1359.570312 C 1564.058594 1359.570312 1530.21875 1359.570312 1506.609375 1359.570312 C 1491.390625 1359.570312 1476.390625 1371.910156 1473.101562 1387.128906 C 1472.949219 1387.820312 1472.800781 1388.511719 1472.648438 1389.199219 C 1469.359375 1404.421875 1479.03125 1416.761719 1494.25 1416.761719 C 1517.859375 1416.761719 1551.691406 1416.761719 1575.308594 1416.761719 C 1590.519531 1416.761719 1605.53125 1404.421875 1608.820312 1389.199219 C 1608.96875 1388.511719 1609.121094 1387.820312 1609.269531 1387.128906 "/>
<path fill-rule="evenodd" fill="rgb(100%, 100%, 100%)" fill-opacity="1" d="M 1709.929688 1482.859375 C 1711.871094 1473.890625 1706.171875 1466.621094 1697.199219 1466.621094 C 1650.878906 1466.621094 1518.460938 1466.621094 1472.140625 1466.621094 C 1463.179688 1466.621094 1454.339844 1473.890625 1452.398438 1482.859375 C 1452.390625 1482.859375 1452.390625 1482.859375 1452.390625 1482.859375 C 1450.460938 1491.828125 1456.148438 1499.101562 1465.121094 1499.101562 C 1511.441406 1499.101562 1643.859375 1499.101562 1690.179688 1499.101562 C 1699.148438 1499.101562 1707.988281 1491.828125 1709.929688 1482.859375 "/>
<path fill-rule="evenodd" fill="rgb(100%, 100%, 100%)" fill-opacity="1" d="M 1699.511719 1531.039062 C 1701.449219 1522.070312 1695.75 1514.800781 1686.78125 1514.800781 C 1640.460938 1514.800781 1508.039062 1514.800781 1461.71875 1514.800781 C 1452.761719 1514.800781 1443.910156 1522.070312 1441.980469 1531.039062 C 1441.980469 1531.039062 1441.980469 1531.039062 1441.96875 1531.039062 C 1440.039062 1540.011719 1445.730469 1547.28125 1454.699219 1547.28125 C 1501.019531 1547.28125 1633.441406 1547.28125 1679.761719 1547.28125 C 1688.730469 1547.28125 1697.570312 1540.011719 1699.511719 1531.039062 "/>
<path fill-rule="evenodd" fill="rgb(100%, 100%, 100%)" fill-opacity="1" d="M 1650.578125 1757.289062 C 1652.160156 1749.980469 1650.769531 1742.96875 1646.71875 1737.800781 C 1642.671875 1732.640625 1636.289062 1729.730469 1628.980469 1729.730469 C 1579.480469 1729.730469 1476.058594 1729.730469 1426.558594 1729.730469 C 1411.339844 1729.730469 1396.328125 1742.070312 1393.039062 1757.289062 C 1392.890625 1757.980469 1392.738281 1758.671875 1392.589844 1759.359375 C 1391.011719 1766.671875 1392.398438 1773.679688 1396.449219 1778.839844 C 1400.5 1784.011719 1406.878906 1786.910156 1414.191406 1786.910156 C 1463.691406 1786.910156 1567.109375 1786.910156 1616.609375 1786.910156 C 1631.828125 1786.910156 1646.839844 1774.578125 1650.128906 1759.359375 C 1650.28125 1758.671875 1650.429688 1757.980469 1650.578125 1757.289062 "/>
<path fill-rule="evenodd" fill="rgb(100%, 100%, 100%)" fill-opacity="1" d="M 2034.28125 1896.289062 C 2035.238281 1891.839844 2034.398438 1887.570312 2031.929688 1884.421875 C 2029.46875 1881.28125 2025.578125 1879.511719 2021.128906 1879.511719 C 1928.101562 1879.511719 1476.421875 1879.511719 1383.390625 1879.511719 C 1378.941406 1879.511719 1374.289062 1881.28125 1370.460938 1884.421875 C 1366.628906 1887.570312 1363.941406 1891.839844 1362.980469 1896.289062 C 1362.980469 1896.289062 1362.980469 1896.300781 1362.980469 1896.300781 C 1362.011719 1900.75 1362.859375 1905.019531 1365.328125 1908.171875 C 1367.789062 1911.308594 1371.679688 1913.078125 1376.128906 1913.078125 C 1469.160156 1913.078125 1920.839844 1913.078125 2013.871094 1913.078125 C 2018.320312 1913.078125 2022.96875 1911.308594 2026.800781 1908.171875 C 2030.621094 1905.019531 2033.308594 1900.75 2034.28125 1896.300781 C 2034.28125 1896.300781 2034.28125 1896.289062 2034.28125 1896.289062 "/>
<path fill-rule="evenodd" fill="rgb(100%, 100%, 100%)" fill-opacity="1" d="M 2019.609375 1964.101562 C 2020.578125 1959.648438 2019.730469 1955.378906 2017.269531 1952.230469 C 2014.800781 1949.089844 2010.910156 1947.320312 2006.460938 1947.320312 C 1913.429688 1947.320312 1461.761719 1947.320312 1368.71875 1947.320312 C 1364.269531 1947.320312 1359.621094 1949.089844 1355.789062 1952.230469 C 1351.96875 1955.378906 1349.28125 1959.648438 1348.308594 1964.101562 C 1348.308594 1964.109375 1348.308594 1964.109375 1348.308594 1964.121094 C 1347.351562 1968.570312 1348.191406 1972.828125 1350.660156 1975.980469 C 1353.121094 1979.128906 1357.011719 1980.890625 1361.460938 1980.890625 C 1454.488281 1980.890625 1906.171875 1980.890625 1999.199219 1980.890625 C 2003.648438 1980.890625 2008.300781 1979.128906 2012.128906 1975.980469 C 2015.960938 1972.828125 2018.648438 1968.570312 2019.609375 1964.121094 C 2019.609375 1964.109375 2019.609375 1964.109375 2019.609375 1964.101562 "/>
<path fill-rule="evenodd" fill="rgb(100%, 100%, 100%)" fill-opacity="1" d="M 2004.949219 2031.910156 C 2005.910156 2027.460938 2005.070312 2023.195312 2002.601562 2020.046875 C 2000.128906 2016.902344 1996.25 2015.132812 1991.800781 2015.132812 C 1898.761719 2015.132812 1447.089844 2015.132812 1354.058594 2015.132812 C 1349.609375 2015.132812 1344.960938 2016.902344 1341.128906 2020.046875 C 1337.300781 2023.195312 1334.609375 2027.460938 1333.648438 2031.910156 C 1333.648438 2031.917969 1333.640625 2031.921875 1333.640625 2031.929688 C 1332.679688 2036.378906 1333.53125 2040.644531 1335.988281 2043.792969 C 1338.460938 2046.9375 1342.339844 2048.707031 1346.789062 2048.707031 C 1439.828125 2048.707031 1891.5 2048.707031 1984.539062 2048.707031 C 1988.988281 2048.707031 1993.640625 2046.9375 1997.460938 2043.792969 C 2001.289062 2040.644531 2003.980469 2036.378906 2004.941406 2031.929688 C 2004.949219 2031.921875 2004.949219 2031.917969 2004.949219 2031.910156 "/>
<path fill-rule="nonzero" fill="rgb(100%, 100%, 100%)" fill-opacity="1" d="M 2069.46875 1759.289062 C 2062.929688 1789.140625 2049.578125 1813.339844 2029.429688 1831.898438 C 2009.28125 1850.449219 1986.179688 1859.691406 1960.128906 1859.621094 C 1933.699219 1859.539062 1914.46875 1850.289062 1902.421875 1831.871094 C 1890.371094 1813.441406 1887.789062 1788.519531 1894.671875 1757.109375 L 1899.949219 1733.050781 C 1906.539062 1702.980469 1919.871094 1678.828125 1939.949219 1660.609375 C 1960.03125 1642.390625 1983.101562 1633.308594 2009.148438 1633.390625 C 2035.390625 1633.460938 2054.578125 1642.710938 2066.71875 1661.140625 C 2078.859375 1679.570312 2081.511719 1704.371094 2074.671875 1735.558594 Z M 2021.898438 1733.398438 C 2024.828125 1720.039062 2023.988281 1709.28125 2019.398438 1701.128906 C 2014.808594 1692.980469 2007.339844 1688.890625 1996.988281 1688.859375 C 1986.640625 1688.828125 1977.519531 1692.929688 1969.621094 1701.148438 C 1961.710938 1709.378906 1956.25 1720.398438 1953.21875 1734.210938 L 1947.800781 1758.941406 C 1944.871094 1772.300781 1945.550781 1783.121094 1949.839844 1791.378906 C 1954.128906 1799.640625 1961.640625 1803.78125 1972.359375 1803.808594 C 1982.519531 1803.839844 1991.628906 1799.800781 1999.691406 1791.691406 C 2007.761719 1783.570312 2013.378906 1772.28125 2016.550781 1757.800781 Z M 1936.550781 1485.050781 C 1929.960938 1515.128906 1916.519531 1539.328125 1896.230469 1557.660156 C 1875.941406 1575.988281 1852.859375 1585.121094 1827 1585.050781 C 1800.761719 1584.96875 1781.539062 1575.828125 1769.359375 1557.628906 C 1757.171875 1539.429688 1754.558594 1514.398438 1761.550781 1482.539062 L 1766.820312 1458.480469 C 1773.359375 1428.628906 1786.589844 1404.539062 1806.511719 1386.210938 C 1826.429688 1367.871094 1849.601562 1358.738281 1876.019531 1358.820312 C 1902.628906 1358.898438 1921.941406 1368.199219 1933.96875 1386.738281 C 1945.988281 1405.28125 1948.660156 1429.808594 1941.96875 1460.328125 Z M 1889.050781 1458.839844 C 1891.730469 1446.578125 1890.699219 1436.101562 1885.949219 1427.398438 C 1881.199219 1418.691406 1873.839844 1414.320312 1863.859375 1414.289062 C 1841.320312 1414.230469 1826.75 1429.230469 1820.160156 1459.308594 L 1814.601562 1484.699219 C 1811.671875 1498.070312 1812.449219 1508.828125 1816.949219 1516.980469 C 1821.449219 1525.121094 1828.878906 1529.210938 1839.230469 1529.238281 C 1849.570312 1529.269531 1858.78125 1525.230469 1866.839844 1517.121094 C 1874.910156 1509.011719 1880.480469 1497.929688 1883.550781 1483.898438 Z M 2043.960938 1402.441406 L 2077.46875 1427.949219 L 1797.070312 1807.660156 L 1763.558594 1782.148438 L 2043.960938 1402.441406 "/>
<path fill-rule="nonzero" fill="rgb(100%, 100%, 100%)" fill-opacity="1" d="M 1654.191406 1203.699219 L 1640.761719 1203.699219 L 1634.289062 1233.640625 L 1617.429688 1233.640625 L 1635.121094 1151.859375 L 1665.511719 1151.859375 C 1675.171875 1151.859375 1682.160156 1154.011719 1686.46875 1158.320312 C 1690.78125 1162.621094 1692.089844 1168.710938 1690.390625 1176.570312 C 1689.179688 1182.148438 1686.96875 1186.808594 1683.738281 1190.53125 C 1680.519531 1194.261719 1676.21875 1197.21875 1670.839844 1199.441406 L 1681.300781 1232.859375 L 1681.128906 1233.640625 L 1663.050781 1233.640625 Z M 1643.710938 1190.050781 L 1657.308594 1190.050781 C 1661.539062 1190.050781 1665.050781 1188.980469 1667.839844 1186.820312 C 1670.621094 1184.671875 1672.429688 1181.699219 1673.238281 1177.921875 C 1674.078125 1174.058594 1673.640625 1171.03125 1671.929688 1168.820312 C 1670.210938 1166.609375 1667.089844 1165.511719 1662.558594 1165.511719 L 1649.019531 1165.511719 L 1643.710938 1190.050781 "/>
<path fill-rule="nonzero" fill="rgb(100%, 100%, 100%)" fill-opacity="1" d="M 1717.519531 1234.769531 C 1708.601562 1234.769531 1701.941406 1232.03125 1697.519531 1226.570312 C 1693.109375 1221.101562 1691.878906 1213.820312 1693.851562 1204.710938 L 1694.191406 1203.140625 C 1695.511719 1197.039062 1697.871094 1191.578125 1701.269531 1186.769531 C 1704.671875 1181.949219 1708.808594 1178.25 1713.699219 1175.640625 C 1718.589844 1173.039062 1723.808594 1171.738281 1729.351562 1171.738281 C 1737.660156 1171.738281 1743.640625 1174.359375 1747.28125 1179.609375 C 1750.921875 1184.851562 1751.699219 1192.28125 1749.621094 1201.910156 L 1748.191406 1208.53125 L 1709.480469 1208.53125 C 1709.148438 1212.511719 1710.039062 1215.691406 1712.171875 1218.078125 C 1714.289062 1220.480469 1717.371094 1221.679688 1721.410156 1221.679688 C 1727.671875 1221.679688 1733.050781 1219.410156 1737.550781 1214.878906 L 1743.589844 1223.808594 C 1740.410156 1227.261719 1736.539062 1229.949219 1731.960938 1231.871094 C 1727.390625 1233.800781 1722.570312 1234.769531 1717.519531 1234.769531 Z M 1726.449219 1184.890625 C 1723.230469 1184.890625 1720.378906 1185.96875 1717.910156 1188.140625 C 1715.441406 1190.320312 1713.480469 1193.421875 1712.050781 1197.46875 L 1734.628906 1197.46875 L 1734.910156 1196.179688 C 1735.609375 1192.578125 1735.238281 1189.800781 1733.789062 1187.828125 C 1732.339844 1185.871094 1729.898438 1184.890625 1726.449219 1184.890625 "/>
<path fill-rule="nonzero" fill="rgb(100%, 100%, 100%)" fill-opacity="1" d="M 1788.519531 1216.851562 C 1788.949219 1214.859375 1788.300781 1213.300781 1786.589844 1212.160156 C 1784.871094 1211.019531 1781.929688 1210 1777.78125 1209.101562 C 1763.980469 1206.058594 1758.078125 1199.921875 1760.078125 1190.671875 C 1761.25 1185.28125 1764.460938 1180.78125 1769.71875 1177.160156 C 1774.980469 1173.550781 1781.21875 1171.738281 1788.441406 1171.738281 C 1796.160156 1171.738281 1801.941406 1173.558594 1805.78125 1177.191406 C 1809.621094 1180.820312 1810.910156 1185.539062 1809.648438 1191.351562 L 1793.421875 1191.351562 C 1793.921875 1189.019531 1793.589844 1187.109375 1792.421875 1185.589844 C 1791.25 1184.070312 1789.070312 1183.308594 1785.890625 1183.308594 C 1783.148438 1183.308594 1780.898438 1183.929688 1779.140625 1185.171875 C 1777.371094 1186.398438 1776.28125 1187.96875 1775.871094 1189.878906 C 1775.480469 1191.679688 1776.019531 1193.128906 1777.480469 1194.238281 C 1778.949219 1195.339844 1781.621094 1196.300781 1785.488281 1197.101562 C 1789.359375 1197.910156 1792.570312 1198.820312 1795.121094 1199.828125 C 1803.019531 1202.96875 1806.128906 1208.421875 1804.449219 1216.171875 C 1803.25 1221.71875 1799.898438 1226.199219 1794.410156 1229.628906 C 1788.910156 1233.058594 1782.398438 1234.769531 1774.871094 1234.769531 C 1769.78125 1234.769531 1765.449219 1233.859375 1761.890625 1232.039062 C 1758.339844 1230.230469 1755.78125 1227.738281 1754.210938 1224.570312 C 1752.648438 1221.410156 1752.269531 1217.988281 1753.058594 1214.320312 L 1768.449219 1214.320312 C 1767.980469 1217.199219 1768.570312 1219.410156 1770.21875 1220.949219 C 1771.871094 1222.480469 1774.359375 1223.25 1777.699219 1223.25 C 1780.808594 1223.25 1783.28125 1222.660156 1785.128906 1221.480469 C 1786.980469 1220.300781 1788.109375 1218.761719 1788.519531 1216.851562 "/>
<path fill-rule="nonzero" fill="rgb(100%, 100%, 100%)" fill-opacity="1" d="M 1848.859375 1227.46875 C 1843.800781 1232.328125 1837.730469 1234.769531 1830.648438 1234.769531 C 1824.128906 1234.769531 1819.570312 1232.898438 1816.949219 1229.148438 C 1814.339844 1225.410156 1813.769531 1219.921875 1815.261719 1212.691406 L 1823.871094 1172.859375 L 1840.109375 1172.859375 L 1831.609375 1212.128906 C 1830.25 1218.460938 1832.441406 1221.621094 1838.210938 1221.621094 C 1843.71875 1221.621094 1847.910156 1219.710938 1850.800781 1215.890625 L 1860.109375 1172.859375 L 1876.390625 1172.859375 L 1863.25 1233.640625 L 1847.96875 1233.640625 L 1848.859375 1227.46875 "/>
<path fill-rule="nonzero" fill="rgb(100%, 100%, 100%)" fill-opacity="1" d="M 1903.859375 1172.859375 L 1902.898438 1179.660156 C 1908.351562 1174.378906 1914.738281 1171.738281 1922.078125 1171.738281 C 1929.910156 1171.738281 1934.621094 1174.828125 1936.199219 1181.011719 C 1941.808594 1174.828125 1948.558594 1171.738281 1956.460938 1171.738281 C 1963.050781 1171.738281 1967.539062 1173.660156 1969.929688 1177.5 C 1972.320312 1181.339844 1972.691406 1187.109375 1971.019531 1194.828125 L 1962.621094 1233.640625 L 1946.328125 1233.640625 L 1954.710938 1194.878906 C 1955.460938 1191.441406 1955.328125 1188.921875 1954.328125 1187.328125 C 1953.320312 1185.738281 1951.121094 1184.941406 1947.710938 1184.941406 C 1942.839844 1184.941406 1938.96875 1187.261719 1936.089844 1191.910156 L 1927.121094 1233.640625 L 1910.890625 1233.640625 L 1919.261719 1194.941406 C 1920.019531 1191.421875 1919.878906 1188.871094 1918.828125 1187.300781 C 1917.78125 1185.730469 1915.589844 1184.941406 1912.261719 1184.941406 C 1907.660156 1184.941406 1903.910156 1186.851562 1901.019531 1190.671875 L 1891.730469 1233.640625 L 1875.5 1233.640625 L 1888.640625 1172.859375 L 1903.859375 1172.859375 "/>
<path fill-rule="nonzero" fill="rgb(100%, 100%, 100%)" fill-opacity="1" d="M 2002.820312 1234.769531 C 1993.910156 1234.769531 1987.25 1232.03125 1982.828125 1226.570312 C 1978.410156 1221.101562 1977.191406 1213.820312 1979.160156 1204.710938 L 1979.5 1203.140625 C 1980.820312 1197.039062 1983.179688 1191.578125 1986.578125 1186.769531 C 1989.980469 1181.949219 1994.121094 1178.25 1999.011719 1175.640625 C 2003.898438 1173.039062 2009.121094 1171.738281 2014.660156 1171.738281 C 2022.96875 1171.738281 2028.949219 1174.359375 2032.589844 1179.609375 C 2036.230469 1184.851562 2037.011719 1192.28125 2034.929688 1201.910156 L 2033.488281 1208.53125 L 1994.789062 1208.53125 C 1994.460938 1212.511719 1995.351562 1215.691406 1997.46875 1218.078125 C 1999.589844 1220.480469 2002.679688 1221.679688 2006.71875 1221.679688 C 2012.980469 1221.679688 2018.351562 1219.410156 2022.851562 1214.878906 L 2028.898438 1223.808594 C 2025.71875 1227.261719 2021.839844 1229.949219 2017.269531 1231.871094 C 2012.691406 1233.800781 2007.878906 1234.769531 2002.820312 1234.769531 Z M 2011.761719 1184.890625 C 2008.539062 1184.890625 2005.691406 1185.96875 2003.21875 1188.140625 C 2000.738281 1190.320312 1998.789062 1193.421875 1997.351562 1197.46875 L 2019.941406 1197.46875 L 2020.210938 1196.179688 C 2020.921875 1192.578125 2020.550781 1189.800781 2019.101562 1187.828125 C 2017.648438 1185.871094 2015.199219 1184.890625 2011.761719 1184.890625 "/>
<path fill-rule="evenodd" fill="rgb(98.046875%, 84.764099%, 72.851562%)" fill-opacity="1" d="M 1481.988281 1238.210938 L 1251.589844 1435.03125 L 855.914062 1559.269531 C 855.914062 1559.269531 890.390625 1786.261719 1029.371094 1811.808594 C 1126.160156 1829.609375 1405.699219 1713.53125 1441.398438 1611.589844 C 1514.910156 1401.671875 1629.539062 1262.21875 1585.621094 1208.5 C 1585.621094 1208.5 1567.171875 1171.699219 1560.171875 1160.921875 C 1501.261719 1070.199219 1474.628906 1099.058594 1474.628906 1099.058594 C 1474.628906 1099.058594 1524.511719 1199.558594 1480.949219 1159.671875 C 1474.019531 1153.320312 1465.511719 1170.011719 1469.460938 1187.328125 C 1474.460938 1209.289062 1481.988281 1238.210938 1481.988281 1238.210938 "/>
<g clip-path="url(#clip-0)">
<g clip-path="url(#clip-1)">
<path fill-rule="evenodd" fill="rgb(84.375%, 71.484375%, 59.959412%)" fill-opacity="1" d="M 1593.800781 1422.789062 C 1634.949219 1320.480469 1534.570312 1252.109375 1525.359375 1281.03125 C 1479.289062 1425.699219 1385.289062 1535.78125 1315.628906 1579.660156 C 1284.929688 1599 1251.089844 1613.519531 1216.039062 1621.261719 C 1206.089844 1623.460938 1196.128906 1625.570312 1186.140625 1627.570312 C 1181.871094 1628.421875 1175.351562 1629.460938 1173.050781 1634.050781 C 1167.699219 1644.761719 1187.660156 1661.25 1193.230469 1667.25 C 1219.148438 1695.089844 1242.21875 1732.261719 1277.421875 1747.261719 C 1356.960938 1781.140625 1426.351562 1697.929688 1470.660156 1639.828125 C 1490.539062 1613.761719 1509.011719 1586.621094 1526.179688 1558.5 C 1540.398438 1535.210938 1553.039062 1510.941406 1565.128906 1486.359375 C 1575.390625 1465.539062 1585.121094 1444.390625 1593.800781 1422.789062 "/>
</g>
</g>
<g clip-path="url(#clip-2)">
<g clip-path="url(#clip-3)">
<path fill-rule="evenodd" fill="rgb(94.921875%, 36.108398%, 1.997375%)" fill-opacity="1" d="M 1071.289062 1427.609375 C 1078.230469 1433.191406 1093.03125 1435.820312 1101.289062 1440.269531 C 1123 1451.96875 1143.589844 1467.171875 1160.128906 1485.519531 C 1191.171875 1519.949219 1203.589844 1575.980469 1250.710938 1593.828125 C 1312.710938 1617.328125 1365.511719 1541.511719 1421.351562 1592.730469 C 1429.089844 1599.828125 1435.820312 1607.910156 1441.039062 1617.03125 C 1481.671875 1688.109375 1424.878906 1778.320312 1369.179688 1822.441406 C 1262.378906 1907.011719 1113.128906 1905.328125 995.421875 1845.039062 C 903.429688 1797.921875 817.921875 1717 779.535156 1619.710938 C 756.59375 1561.558594 744.566406 1468.898438 810.210938 1432.511719 C 840.28125 1415.828125 1037.859375 1426.558594 1071.289062 1427.609375 "/>
</g>
</g>
<path fill-rule="evenodd" fill="rgb(0.799561%, 19.993591%, 25.488281%)" fill-opacity="1" d="M 1418.199219 821.898438 C 1412.011719 810.601562 1401.570312 802.21875 1389.191406 798.609375 C 1376.820312 795 1363.519531 796.460938 1352.210938 802.660156 C 1346.710938 805.671875 1341.070312 808.769531 1335.558594 811.789062 C 1324.261719 817.988281 1315.878906 828.421875 1312.269531 840.800781 C 1308.660156 853.171875 1310.121094 866.480469 1316.308594 877.78125 C 1397.230469 1025.320312 1662.769531 1509.511719 1705.148438 1586.78125 C 1708.941406 1593.691406 1713.820312 1599.949219 1719.589844 1605.320312 C 1740.058594 1624.359375 1791.761719 1672.429688 1822.359375 1700.878906 C 1825.75 1704.03125 1830.78125 1704.660156 1834.839844 1702.429688 C 1838.898438 1700.199219 1841.078125 1695.628906 1840.238281 1691.070312 C 1832.699219 1649.980469 1819.960938 1580.539062 1814.910156 1553.050781 C 1813.488281 1545.289062 1810.828125 1537.808594 1807.039062 1530.898438 C 1764.660156 1453.628906 1499.121094 969.441406 1418.199219 821.898438 "/>
<g clip-path="url(#clip-4)">
<g clip-path="url(#clip-5)">
<path fill-rule="evenodd" fill="rgb(1.197815%, 13.305664%, 18.406677%)" fill-opacity="1" d="M 1310.328125 778.898438 C 1338.121094 916.78125 1421.480469 1023.039062 1488.058594 1138.96875 C 1538.621094 1227.019531 1582.238281 1318.589844 1632.339844 1406.851562 C 1658.050781 1452.148438 1684.808594 1496.929688 1711.339844 1541.769531 C 1724.640625 1564.261719 1740.25 1593.898438 1766.230469 1603.820312 C 1800.320312 1616.839844 1806.921875 1573.578125 1810.53125 1549.921875 C 1811.71875 1542.101562 1813.089844 1522.179688 1825.851562 1525.96875 C 1840.660156 1530.359375 1851.289062 1552.210938 1857.839844 1564.398438 C 1880.910156 1607.320312 1893.78125 1655.308594 1895.21875 1704.011719 C 1897.5 1781.261719 1858.851562 1844.011719 1774.988281 1803.589844 C 1706.570312 1770.628906 1654.039062 1704.21875 1607.660156 1646.378906 C 1512.160156 1527.269531 1437.289062 1391.628906 1369.851562 1255.140625 C 1308.558594 1131.109375 1188.859375 888.308594 1310.328125 778.898438 "/>
</g>
</g>
<path fill-rule="evenodd" fill="rgb(100%, 100%, 100%)" fill-opacity="1" d="M 1411.199219 880.710938 C 1404.910156 869.238281 1390.511719 865.039062 1379.050781 871.328125 C 1367.578125 877.621094 1363.378906 892.019531 1369.671875 903.480469 C 1386.070312 933.390625 1416.171875 988.269531 1432.570312 1018.179688 C 1438.859375 1029.640625 1453.25 1033.839844 1464.71875 1027.550781 C 1476.191406 1021.261719 1480.390625 1006.871094 1474.101562 995.398438 C 1457.699219 965.5 1427.601562 910.609375 1411.199219 880.710938 "/>
<path fill-rule="evenodd" fill="rgb(94.921875%, 36.108398%, 1.997375%)" fill-opacity="1" d="M 1200.96875 1570.378906 C 1146.898438 1508.511719 843.425781 1516.589844 793.648438 1579.148438 C 648.625 1761.429688 712.121094 2191.378906 712.121094 2191.378906 L 1333.050781 2196.417969 C 1251.710938 2094.015625 1290.871094 1673.261719 1200.96875 1570.378906 "/>
<g clip-path="url(#clip-6)">
<g clip-path="url(#clip-7)">
<path fill-rule="evenodd" fill="rgb(82.421875%, 24.705505%, 0%)" fill-opacity="1" d="M 1147.53125 1737.761719 C 1114.289062 1891.460938 1280.929688 1964.410156 1149.359375 2145.035156 C 1118.570312 2187.316406 1142.921875 2212.972656 1188.519531 2247.101562 C 1256.160156 2297.730469 1369.421875 2227.351562 1386.679688 2159.800781 C 1451.730469 1905.140625 1153.769531 1787.820312 1147.53125 1737.761719 "/>
</g>
</g>
<path fill-rule="evenodd" fill="rgb(98.046875%, 84.764099%, 72.851562%)" fill-opacity="1" d="M 1578.851562 1340.019531 L 1500.460938 1593.640625 L 1090.351562 1531.941406 C 1090.351562 1531.941406 1021.878906 1751.078125 1135.609375 1834.949219 C 1214.808594 1893.359375 1516.960938 1911.511719 1593.710938 1835.519531 C 1751.769531 1679.03125 1700.96875 1426.261719 1685.019531 1358.71875 C 1685.019531 1358.71875 1684.558594 1317.558594 1682.988281 1304.800781 C 1669.789062 1197.449219 1633.210938 1211.71875 1633.210938 1211.71875 C 1633.210938 1211.71875 1622.980469 1322.148438 1601.300781 1267.210938 C 1597.859375 1258.46875 1583.820312 1258.339844 1579.78125 1275.640625 C 1574.648438 1297.578125 1578.851562 1340.019531 1578.851562 1340.019531 "/>
<g clip-path="url(#clip-8)">
<g clip-path="url(#clip-9)">
<path fill-rule="evenodd" fill="rgb(84.375%, 71.484375%, 59.959412%)" fill-opacity="1" d="M 1796.300781 1452.140625 C 1798.78125 1346.511719 1681.449219 1322.78125 1683.011719 1351.75 C 1690.78125 1496.679688 1641.839844 1628.550781 1592.390625 1692.910156 C 1570.589844 1721.28125 1544.191406 1746.519531 1514.289062 1766.21875 C 1505.800781 1771.808594 1497.28125 1777.339844 1488.679688 1782.761719 C 1485 1785.078125 1479.300781 1788.398438 1478.769531 1793.300781 C 1477.539062 1804.738281 1501.878906 1812.019531 1509.160156 1815.28125 C 1543.019531 1830.421875 1577.5 1854.871094 1615.488281 1855.238281 C 1701.359375 1856.078125 1736.800781 1757.011719 1757.691406 1689.351562 C 1767.058594 1658.988281 1774.75 1628.199219 1780.878906 1597.03125 C 1785.960938 1571.199219 1789.21875 1545.089844 1791.878906 1518.910156 C 1794.128906 1496.71875 1795.78125 1474.441406 1796.300781 1452.140625 "/>
</g>
</g>
<g clip-path="url(#clip-10)">
<g clip-path="url(#clip-11)">
<path fill-rule="evenodd" fill="rgb(94.921875%, 36.108398%, 1.997375%)" fill-opacity="1" d="M 1341.640625 1507.96875 C 1345.429688 1516.03125 1357.578125 1524.871094 1363.058594 1532.488281 C 1377.449219 1552.519531 1389.300781 1575.210938 1396.128906 1598.949219 C 1408.929688 1643.5 1395.550781 1699.300781 1430.078125 1736 C 1475.519531 1784.289062 1556.199219 1739.269531 1583.960938 1809.78125 C 1587.800781 1819.550781 1590.308594 1829.761719 1591 1840.25 C 1596.378906 1921.941406 1505.808594 1978.160156 1436.410156 1993.398438 C 1303.351562 2022.621094 1169.929688 1955.71875 1090.539062 1849.949219 C 1028.488281 1767.289062 987.085938 1657.070312 995.210938 1552.800781 C 1000.070312 1490.480469 1029.859375 1401.921875 1104.808594 1397.96875 C 1139.148438 1396.160156 1312.050781 1492.371094 1341.640625 1507.96875 "/>
</g>
</g>
<path fill-rule="evenodd" fill="rgb(98.046875%, 84.764099%, 72.851562%)" fill-opacity="1" d="M 1048.410156 1443.851562 L 960.183594 1443.851562 C 969.617188 1479.949219 948.894531 1509.21875 936.929688 1533.339844 C 961.863281 1581.75 1029.699219 1561.488281 1047.730469 1527.800781 C 1030.660156 1493.191406 1032.878906 1471.21875 1048.410156 1443.851562 "/>
<g clip-path="url(#clip-12)">
<g clip-path="url(#clip-13)">
<path fill-rule="evenodd" fill="rgb(84.375%, 71.484375%, 59.959412%)" fill-opacity="1" d="M 981.484375 1415.339844 C 983.574219 1419.910156 971.074219 1446.5 973.640625 1450.738281 C 979.878906 1461.070312 986.460938 1471.089844 993.699219 1480.609375 C 1000.628906 1489.71875 1008.171875 1498.800781 1016.628906 1506.238281 C 1024.660156 1513.300781 1034.210938 1518.949219 1043.570312 1523.558594 C 1047.449219 1525.46875 1052.441406 1527.839844 1056.730469 1526.410156 C 1062.320312 1524.539062 1064.210938 1515.28125 1065.390625 1509.949219 C 1069.28125 1492.441406 1066.839844 1472.199219 1060.390625 1455.699219 C 1047.351562 1422.351562 1012.691406 1405.410156 981.484375 1415.339844 "/>
</g>
</g>
<path fill-rule="evenodd" fill="rgb(98.046875%, 84.764099%, 72.851562%)" fill-opacity="1" d="M 1020.121094 1309 C 1060.789062 1309 1093.820312 1349.359375 1093.820312 1399.058594 C 1093.820312 1448.761719 1089.28125 1493.859375 1048.609375 1493.859375 C 1007.929688 1493.859375 946.414062 1448.761719 946.414062 1399.058594 C 946.414062 1349.359375 979.4375 1309 1020.121094 1309 "/>
<path fill-rule="evenodd" fill="rgb(1.197815%, 13.305664%, 18.406677%)" fill-opacity="1" d="M 969.367188 1296.210938 C 967.835938 1289.171875 967.03125 1281.859375 967.03125 1274.359375 C 967.03125 1217.75 1012.988281 1171.789062 1069.589844 1171.789062 C 1126.191406 1171.789062 1172.148438 1217.75 1172.148438 1274.359375 C 1172.148438 1330.960938 1126.191406 1376.910156 1069.589844 1376.910156 C 1067.929688 1376.910156 1066.269531 1376.878906 1064.628906 1376.800781 C 1067.828125 1384.371094 1069.589844 1392.699219 1069.589844 1401.429688 C 1069.589844 1436.5 1041.121094 1464.96875 1006.050781 1464.96875 C 988.851562 1464.96875 973.238281 1458.121094 961.792969 1447 C 956.414062 1449.78125 950.304688 1451.359375 943.835938 1451.359375 C 922.226562 1451.359375 904.679688 1433.808594 904.679688 1412.199219 C 904.679688 1393.761719 917.460938 1378.28125 934.644531 1374.140625 C 930.332031 1366.449219 927.875 1357.589844 927.875 1348.160156 C 927.875 1322.808594 945.628906 1301.570312 969.367188 1296.210938 "/>
<path fill-rule="evenodd" fill="rgb(41.209412%, 57.617188%, 64.256287%)" fill-opacity="1" d="M 2309.019531 2198.21875 C 2310.730469 2176.113281 2318.109375 2154.089844 2325.109375 2133.222656 C 2343.75 2077.621094 2370.648438 2027.707031 2418.269531 1991.851562 C 2441.390625 1974.441406 2472.789062 1958.140625 2502.808594 1962.25 C 2517 1964.191406 2532.859375 1972.398438 2532.179688 1988.820312 C 2530.949219 2018.203125 2495.710938 2041.144531 2474.199219 2055.414062 C 2421.601562 2090.324219 2323.929688 2128.101562 2309.019531 2198.21875 "/>
<g clip-path="url(#clip-14)">
<g clip-path="url(#clip-15)">
<path fill-rule="evenodd" fill="rgb(28.295898%, 44.700623%, 51.171875%)" fill-opacity="1" d="M 2519.261719 1947.148438 C 2523.28125 1957.210938 2521.578125 1969.058594 2519.5 1979.328125 C 2517.628906 1988.578125 2515.039062 1998.011719 2510.269531 2006.203125 C 2493 2035.851562 2456.691406 2048.335938 2424.558594 2053.207031 C 2410.050781 2055.40625 2386.761719 2056.898438 2375.390625 2044.964844 C 2367.558594 2036.738281 2373.230469 2028.867188 2373.660156 2019.644531 C 2373.78125 2017.21875 2371.859375 2016.625 2369.789062 2017.234375 C 2358.71875 2020.496094 2349.171875 2036.320312 2343.230469 2045.125 C 2325.328125 2071.652344 2313.898438 2103.726562 2309.171875 2135.304688 C 2307.5 2146.390625 2305.019531 2161.929688 2312.179688 2171.757812 C 2321.171875 2184.109375 2341.628906 2174.664062 2352.019531 2169.78125 C 2355.070312 2168.347656 2358.078125 2166.832031 2361.070312 2165.289062 C 2364.511719 2163.515625 2367.929688 2161.679688 2371.328125 2159.804688 C 2376.601562 2156.886719 2381.789062 2153.820312 2386.96875 2150.722656 C 2418.449219 2131.875 2568.851562 2053.691406 2588.679688 2016.726562 C 2609.378906 1978.140625 2555.019531 1960.230469 2519.261719 1947.148438 "/>
</g>
</g>
<path fill-rule="evenodd" fill="rgb(41.209412%, 57.617188%, 64.256287%)" fill-opacity="1" d="M 2292.839844 2198.21875 C 2291.128906 2176.113281 2283.75 2154.089844 2276.761719 2133.222656 C 2258.109375 2077.621094 2231.210938 2027.707031 2183.589844 1991.851562 C 2160.46875 1974.441406 2129.070312 1958.140625 2099.058594 1962.25 C 2084.859375 1964.191406 2069 1972.398438 2069.691406 1988.820312 C 2070.921875 2018.203125 2106.160156 2041.144531 2127.660156 2055.414062 C 2180.261719 2090.324219 2277.929688 2128.101562 2292.839844 2198.21875 "/>
<g clip-path="url(#clip-16)">
<g clip-path="url(#clip-17)">
<path fill-rule="evenodd" fill="rgb(28.295898%, 44.700623%, 51.171875%)" fill-opacity="1" d="M 2082.601562 1947.148438 C 2078.589844 1957.210938 2080.289062 1969.058594 2082.359375 1979.328125 C 2084.230469 1988.578125 2086.820312 1998.011719 2091.589844 2006.203125 C 2108.871094 2035.851562 2145.171875 2048.335938 2177.300781 2053.207031 C 2191.808594 2055.40625 2215.109375 2056.898438 2226.46875 2044.964844 C 2234.300781 2036.738281 2228.640625 2028.867188 2228.199219 2019.644531 C 2228.089844 2017.21875 2230.011719 2016.625 2232.070312 2017.234375 C 2243.148438 2020.496094 2252.699219 2036.320312 2258.640625 2045.125 C 2276.539062 2071.652344 2287.960938 2103.726562 2292.691406 2135.304688 C 2294.359375 2146.390625 2296.839844 2161.929688 2289.691406 2171.757812 C 2280.699219 2184.109375 2260.230469 2174.664062 2249.839844 2169.78125 C 2246.789062 2168.347656 2243.789062 2166.832031 2240.789062 2165.289062 C 2237.351562 2163.515625 2233.929688 2161.679688 2230.539062 2159.804688 C 2225.261719 2156.886719 2220.070312 2153.820312 2214.890625 2150.722656 C 2183.421875 2131.875 2033.011719 2053.691406 2013.179688 2016.726562 C 1992.480469 1978.140625 2046.839844 1960.230469 2082.601562 1947.148438 "/>
</g>
</g>
<path fill-rule="evenodd" fill="rgb(41.209412%, 57.617188%, 64.256287%)" fill-opacity="1" d="M 2316.019531 2187.277344 C 2314.910156 2145.632812 2312.300781 2100.824219 2317.109375 2057.851562 C 2321.660156 2017.183594 2332.878906 1978.148438 2359.660156 1945.691406 C 2388.699219 1910.511719 2430.101562 1888.441406 2467.148438 1862.769531 C 2508.421875 1834.191406 2544.519531 1801.460938 2558.441406 1747.511719 C 2562.640625 1731.25 2564.261719 1714.339844 2562.609375 1697.621094 C 2560.851562 1679.789062 2554.980469 1662.601562 2547.050781 1646.53125 C 2543.238281 1638.789062 2533.851562 1635.601562 2526.109375 1639.421875 C 2518.371094 1643.238281 2515.179688 1652.628906 2519 1660.371094 C 2525.269531 1673.070312 2530.089844 1686.609375 2531.480469 1700.699219 C 2532.769531 1713.769531 2531.429688 1726.980469 2528.148438 1739.691406 C 2516.289062 1785.660156 2484.5 1812.699219 2449.339844 1837.058594 C 2409.960938 1864.339844 2366.398438 1888.378906 2335.53125 1925.78125 C 2275.550781 1998.460938 2282.398438 2099.847656 2284.75 2188.109375 C 2284.980469 2196.738281 2292.171875 2203.558594 2300.800781 2203.328125 C 2309.429688 2203.097656 2316.25 2195.90625 2316.019531 2187.277344 "/>
<g clip-path="url(#clip-18)">
<g clip-path="url(#clip-19)">
<path fill-rule="evenodd" fill="rgb(27.806091%, 44.700623%, 50.976562%)" fill-opacity="1" d="M 2478.058594 1617.25 C 2501.789062 1636.691406 2510.890625 1756.21875 2528.03125 1781.210938 C 2532.128906 1787.191406 2538.371094 1810.601562 2546.558594 1811.941406 C 2552.871094 1812.960938 2558.300781 1803.769531 2561 1799.511719 C 2570.550781 1784.421875 2575.789062 1766.109375 2580.398438 1749.03125 C 2592.269531 1705 2598.851562 1651.960938 2585.46875 1607.589844 C 2583.210938 1600.101562 2580.210938 1592.550781 2575.980469 1585.929688 C 2557.511719 1557.070312 2523.828125 1571.589844 2503.578125 1589.671875 C 2494.199219 1598.050781 2485.929688 1607.460938 2478.058594 1617.25 "/>
</g>
</g>
<path fill-rule="evenodd" fill="rgb(94.921875%, 62.304688%, 1.997375%)" fill-opacity="1" d="M 2502.871094 1443.449219 C 2583.898438 1443.449219 2649.691406 1509.238281 2649.691406 1590.269531 C 2649.691406 1671.289062 2583.898438 1737.078125 2502.871094 1737.078125 C 2421.839844 1737.078125 2356.058594 1671.289062 2356.058594 1590.269531 C 2356.058594 1509.238281 2421.839844 1443.449219 2502.871094 1443.449219 "/>
<g clip-path="url(#clip-20)">
<g clip-path="url(#clip-21)">
<path fill-rule="evenodd" fill="rgb(85.15625%, 54.101562%, 0%)" fill-opacity="1" d="M 2622.53125 1475.230469 C 2637.171875 1547.480469 2632.480469 1634.789062 2566.5 1680.820312 C 2553.929688 1689.578125 2540.109375 1696.480469 2525.621094 1701.449219 C 2489.171875 1713.941406 2445.410156 1713.730469 2410.378906 1696.78125 C 2400.101562 1691.808594 2390.289062 1685.480469 2381.96875 1677.640625 C 2376.738281 1672.710938 2371.558594 1664.519531 2365.070312 1661.300781 C 2358.589844 1658.078125 2356.808594 1666.289062 2357.191406 1670.941406 C 2358.601562 1688.441406 2370.429688 1705.789062 2381.070312 1718.949219 C 2422.058594 1769.640625 2489.691406 1784.488281 2550.78125 1764.761719 C 2656.160156 1730.738281 2711.269531 1571.390625 2622.53125 1475.230469 "/>
</g>
</g>
<path fill-rule="evenodd" fill="rgb(94.921875%, 62.304688%, 1.997375%)" fill-opacity="1" d="M 2604.261719 1372.890625 L 2610.058594 1410.210938 L 2647.378906 1416.011719 L 2610.058594 1421.800781 L 2604.261719 1459.121094 L 2598.460938 1421.800781 L 2561.140625 1416.011719 L 2598.460938 1410.210938 L 2604.261719 1372.890625 "/>
<path fill-rule="evenodd" fill="rgb(94.921875%, 62.304688%, 1.997375%)" fill-opacity="1" d="M 2662.511719 1347.570312 L 2665.921875 1369.480469 L 2687.828125 1372.890625 L 2665.921875 1376.289062 L 2662.511719 1398.199219 L 2659.109375 1376.289062 L 2637.199219 1372.890625 L 2659.109375 1369.480469 L 2662.511719 1347.570312 "/>
<path fill-rule="evenodd" fill="rgb(94.921875%, 62.304688%, 1.997375%)" fill-opacity="1" d="M 2662.511719 1442.789062 L 2665.921875 1464.699219 L 2687.828125 1468.109375 L 2665.921875 1471.511719 L 2662.511719 1493.421875 L 2659.109375 1471.511719 L 2637.199219 1468.109375 L 2659.109375 1464.699219 L 2662.511719 1442.789062 "/>
<path fill-rule="nonzero" fill="rgb(100%, 100%, 100%)" fill-opacity="1" d="M 2537.921875 1610.429688 C 2535.210938 1605.738281 2531.75 1602.761719 2527.550781 1601.480469 C 2523.339844 1600.210938 2517.441406 1600.210938 2509.851562 1601.460938 C 2502.261719 1602.710938 2495.53125 1603.488281 2489.671875 1603.78125 C 2483.808594 1604.070312 2478.398438 1603.648438 2473.429688 1602.511719 C 2468.460938 1601.378906 2463.898438 1599.300781 2459.75 1596.269531 C 2455.609375 1593.25 2451.910156 1588.941406 2448.671875 1583.328125 C 2443.089844 1573.660156 2441.601562 1563.941406 2444.21875 1554.191406 C 2446.828125 1544.449219 2452.960938 1536.101562 2462.609375 1529.148438 L 2452 1510.78125 L 2465.738281 1502.851562 L 2476.488281 1521.480469 C 2487.449219 1517.058594 2497.808594 1516.710938 2507.578125 1520.410156 C 2517.351562 1524.121094 2525.460938 1531.558594 2531.898438 1542.710938 L 2507.089844 1557.039062 C 2503.128906 1550.171875 2498.75 1545.851562 2493.949219 1544.078125 C 2489.148438 1542.308594 2484.378906 1542.800781 2479.628906 1545.539062 C 2474.929688 1548.25 2472.070312 1551.679688 2471.03125 1555.828125 C 2469.988281 1559.980469 2470.820312 1564.398438 2473.53125 1569.089844 C 2476.039062 1573.441406 2479.320312 1576.199219 2483.359375 1577.378906 C 2487.390625 1578.558594 2493.628906 1578.550781 2502.050781 1577.351562 C 2510.480469 1576.148438 2517.589844 1575.488281 2523.410156 1575.378906 C 2529.21875 1575.261719 2534.519531 1575.859375 2539.320312 1577.171875 C 2544.121094 1578.488281 2548.460938 1580.640625 2552.320312 1583.628906 C 2556.191406 1586.628906 2559.621094 1590.730469 2562.628906 1595.941406 C 2568.25 1605.671875 2569.78125 1615.320312 2567.210938 1624.878906 C 2564.648438 1634.449219 2558.359375 1642.851562 2548.339844 1650.089844 L 2558.199219 1667.171875 L 2544.550781 1675.050781 L 2534.738281 1658.050781 C 2522.28125 1663.570312 2510.789062 1664.648438 2500.269531 1661.300781 C 2489.75 1657.949219 2481.109375 1650.410156 2474.339844 1638.671875 L 2499.140625 1624.351562 C 2503.078125 1631.160156 2507.710938 1635.449219 2513.039062 1637.21875 C 2518.371094 1638.980469 2524.070312 1638.121094 2530.140625 1634.609375 C 2535.171875 1631.710938 2538.378906 1628.078125 2539.761719 1623.730469 C 2541.148438 1619.390625 2540.53125 1614.949219 2537.921875 1610.429688 "/>
<path fill-rule="evenodd" fill="rgb(0%, 13.206482%, 18.406677%)" fill-opacity="1" d="M 436.902344 2189.503906 L 2209.691406 2189.503906 L 2209.691406 2201.144531 L 436.902344 2201.144531 L 436.902344 2189.503906 "/>
<path fill-rule="evenodd" fill="rgb(0%, 13.206482%, 18.406677%)" fill-opacity="1" d="M 2268.898438 2190.964844 L 2458.839844 2190.964844 L 2458.839844 2203.335938 L 2268.898438 2203.335938 L 2268.898438 2190.964844 "/>
<path fill-rule="evenodd" fill="rgb(52.146912%, 69.334412%, 76.171875%)" fill-opacity="1" d="M 745.980469 1143.96875 C 830.753906 1143.96875 899.582031 1212.789062 899.582031 1297.570312 C 899.582031 1382.339844 830.753906 1451.171875 745.980469 1451.171875 C 661.203125 1451.171875 592.378906 1382.339844 592.378906 1297.570312 C 592.378906 1212.789062 661.203125 1143.96875 745.980469 1143.96875 "/>
<path fill-rule="evenodd" fill="rgb(100%, 100%, 100%)" fill-opacity="1" d="M 667.894531 1317.441406 L 707.71875 1373.21875 C 712.027344 1379.261719 719.058594 1382.769531 726.472656 1382.570312 C 733.890625 1382.378906 740.726562 1378.519531 744.71875 1372.261719 L 824.714844 1246.898438 C 831.34375 1236.511719 828.289062 1222.691406 817.902344 1216.058594 C 807.511719 1209.429688 793.695312 1212.480469 787.066406 1222.871094 L 724.855469 1320.359375 L 704.246094 1291.488281 C 697.085938 1281.460938 683.128906 1279.128906 673.097656 1286.289062 C 663.066406 1293.449219 660.734375 1307.410156 667.894531 1317.441406 "/>
</svg>
