<svg id="wave" style="transform:rotate(0deg); transition: 0.3s" viewBox="0 0 1440 140" version="1.1" xmlns="http://www.w3.org/2000/svg"><defs><linearGradient id="sw-gradient-0" x1="0" x2="0" y1="1" y2="0"><stop stop-color="rgba(213.989, 209.458, 209.458, 1)" offset="0%"></stop><stop stop-color="rgba(238, 238, 238, 1)" offset="100%"></stop></linearGradient></defs><path style="transform:translate(0, 0px); opacity:1" fill="url(#sw-gradient-0)" d="M0,14L26.7,23.3C53.3,33,107,51,160,49C213.3,47,267,23,320,21C373.3,19,427,37,480,37.3C533.3,37,587,19,640,9.3C693.3,0,747,0,800,11.7C853.3,23,907,47,960,51.3C1013.3,56,1067,42,1120,32.7C1173.3,23,1227,19,1280,21C1333.3,23,1387,33,1440,46.7C1493.3,61,1547,79,1600,72.3C1653.3,65,1707,33,1760,16.3C1813.3,0,1867,0,1920,21C1973.3,42,2027,84,2080,86.3C2133.3,89,2187,51,2240,30.3C2293.3,9,2347,5,2400,23.3C2453.3,42,2507,84,2560,86.3C2613.3,89,2667,51,2720,44.3C2773.3,37,2827,61,2880,77C2933.3,93,2987,103,3040,107.3C3093.3,112,3147,112,3200,114.3C3253.3,117,3307,121,3360,112C3413.3,103,3467,79,3520,58.3C3573.3,37,3627,19,3680,25.7C3733.3,33,3787,65,3813,81.7L3840,98L3840,140L3813.3,140C3786.7,140,3733,140,3680,140C3626.7,140,3573,140,3520,140C3466.7,140,3413,140,3360,140C3306.7,140,3253,140,3200,140C3146.7,140,3093,140,3040,140C2986.7,140,2933,140,2880,140C2826.7,140,2773,140,2720,140C2666.7,140,2613,140,2560,140C2506.7,140,2453,140,2400,140C2346.7,140,2293,140,2240,140C2186.7,140,2133,140,2080,140C2026.7,140,1973,140,1920,140C1866.7,140,1813,140,1760,140C1706.7,140,1653,140,1600,140C1546.7,140,1493,140,1440,140C1386.7,140,1333,140,1280,140C1226.7,140,1173,140,1120,140C1066.7,140,1013,140,960,140C906.7,140,853,140,800,140C746.7,140,693,140,640,140C586.7,140,533,140,480,140C426.7,140,373,140,320,140C266.7,140,213,140,160,140C106.7,140,53,140,27,140L0,140Z"></path></svg>